<?xml version="1.0" encoding="UTF-8"?>
<svg width="64px" height="24px" viewBox="0 0 64 24" version="1.1" xmlns="http://www.w3.org/2000/svg" xmlns:xlink="http://www.w3.org/1999/xlink">
    <!-- Generator: Sketch 44.1 (41455) - http://www.bohemiancoding.com/sketch -->
    <title>Logos/carto positive</title>
    <desc>Created with Sketch.</desc>
    <defs>
        <polygon id="path-1" points="12.33315 0 24.333 0 24.333 24 12.33315 24 0.3333 24 0.3333 0 12.33315 0"></polygon>
    </defs>
    <g id="Symbols" stroke="none" stroke-width="1" fill="none" fill-rule="evenodd">
        <g id="Logos/carto-positive">
            <g id="Page-1" transform="translate(1.000000, 0.000000)">
                <g id="Group-3" transform="translate(37.000000, 0.000000)">
                    <mask id="mask-2" fill="white">
                        <use xlink:href="#path-1"></use>
                    </mask>
                    <g id="Clip-2"></g>
                    <path d="M12.3333,0 C18.9603,0 24.3333,5.373 24.3333,12 C24.3333,18.627 18.9603,24 12.3333,24 C5.7063,24 0.3333,18.627 0.3333,12 C0.3333,5.373 5.7063,0 12.3333,0" id="Fill-1" fill-opacity="0.1" fill="#012444" mask="url(#mask-2)"></path>
                </g>
                <path d="M49.3333,16 C51.5423,16 53.3333,14.209 53.3333,12 C53.3333,9.791 51.5423,8 49.3333,8 C47.1243,8 45.3333,9.791 45.3333,12 C45.3333,14.209 47.1243,16 49.3333,16 L49.3333,16 Z M36.7343,15.835 L38.8553,15.835 L38.8553,10.04 L41.1513,10.04 L41.1513,8.181 L34.4483,8.181 L34.4483,10.04 L36.7343,10.04 L36.7343,15.835 Z M25.7373,11.855 L25.7373,10.007 L27.1373,10.007 C27.8363,10.007 28.2853,10.313 28.2853,10.926 L28.2853,10.947 C28.2853,11.505 27.8583,11.855 27.1483,11.855 L25.7373,11.855 Z M23.6163,15.835 L25.7373,15.835 L25.7373,13.517 L26.6783,13.517 L28.2193,15.835 L30.6573,15.835 L28.8313,13.167 C29.7833,12.762 30.4063,11.986 30.4063,10.805 L30.4063,10.783 C30.4063,10.029 30.1763,9.45 29.7283,9.001 C29.2143,8.487 28.4053,8.181 27.2353,8.181 L23.6163,8.181 L23.6163,15.835 Z M14.3263,12.806 L15.1893,10.641 L16.0423,12.806 L14.3263,12.806 Z M10.9363,15.835 L13.1563,15.835 L13.7023,14.457 L16.6653,14.457 L17.2123,15.835 L19.4863,15.835 L16.2283,8.127 L14.1833,8.127 L10.9363,15.835 Z M3.9473,15.988 C5.6303,15.988 6.6033,15.255 7.3253,14.26 L5.7293,13.123 C5.2703,13.681 4.7993,14.053 4.0013,14.053 C2.9303,14.053 2.1753,13.156 2.1753,12.008 L2.1753,11.986 C2.1753,10.871 2.9303,9.953 4.0013,9.953 C4.7343,9.953 5.2373,10.313 5.6743,10.849 L7.2703,9.614 C6.5923,8.684 5.5873,8.028 4.0233,8.028 C1.7053,8.028 0.0003,9.778 0.0003,12.008 L0.0003,12.03 C0.0003,14.315 1.7603,15.988 3.9473,15.988 L3.9473,15.988 Z" id="Fill-4" fill="#012444"></path>
            </g>
        </g>
    </g>
</svg>