<?xml version="1.0" encoding="utf-8"?>
<!-- Generator: Adobe Illustrator 16.0.0, SVG Export Plug-In . SVG Version: 6.00 Build 0)  -->
<!DOCTYPE svg PUBLIC "-//W3C//DTD SVG 1.0//EN" "http://www.w3.org/TR/2001/REC-SVG-20010904/DTD/svg10.dtd">
<svg version="1.0" id="Layer_1" xmlns="http://www.w3.org/2000/svg" xmlns:xlink="http://www.w3.org/1999/xlink" x="0px" y="0px"
	 width="24px" height="24px" viewBox="0 0 24 24" enable-background="new 0 0 24 24" xml:space="preserve">
<g>
	<path fill="#FFFFFF" d="M16.5,11.3H12v2.1h2.205c-0.058,1.327-0.228,1.778-0.605,2.196c-0.359,0.413-0.917,0.683-1.6,0.683
		s-1.258-0.27-1.617-0.683c-0.486-0.54-0.612-1.133-0.612-3.597c0-2.462,0.126-3.056,0.612-3.595
		C10.742,7.991,11.317,7.721,12,7.721s1.24,0.27,1.6,0.683c0.246,0.272,0.404,0.56,0.501,1.096h2.338
		c-0.105-1.145-0.39-1.922-1.148-2.678c-0.867-0.863-2.007-1.33-3.29-1.33s-2.423,0.467-3.29,1.33C7.5,8.026,7.5,9.285,7.5,11.999
		c0,2.716,0,3.974,1.21,5.179c0.867,0.861,2.007,1.33,3.29,1.33s2.423-0.469,3.29-1.33c1.21-1.205,1.21-2.463,1.21-5.179
		C16.5,11.755,16.5,11.521,16.5,11.3z"/>
</g>
<rect x="3" y="3" fill="#FFFFFF" width="1.5" height="1.5"/>
<rect x="19.5" y="3" fill="#FFFFFF" width="1.5" height="1.5"/>
<rect x="3" y="19.5" fill="#FFFFFF" width="1.5" height="1.5"/>
<rect x="19.5" y="19.496" fill="#FFFFFF" width="1.5" height="1.5"/>
</svg>
