<?xml version="1.0" encoding="UTF-8" standalone="no"?>
<svg width="62px" height="24px" viewBox="0 0 62 24" version="1.1" xmlns="http://www.w3.org/2000/svg" xmlns:xlink="http://www.w3.org/1999/xlink">
    <!-- Generator: Sketch 48.2 (47327) - http://www.bohemiancoding.com/sketch -->
    <title>Artboard</title>
    <desc>Created with Sketch.</desc>
    <defs></defs>
    <g id="Symbols" stroke="none" stroke-width="1" fill="none" fill-rule="evenodd">
        <g id="Artboard" fill="#0066CC">
            <g id="CARTO-logo-negative">
                <circle id="Oval" fill-opacity="0.2" cx="50" cy="12" r="12"></circle>
                <path d="M3.996,15.9877333 C5.70105,15.9877333 6.68628,15.2552 7.4169,14.2602667 L5.80068,13.1232 C5.33574,13.6805333 4.85973,14.0525333 4.05162,14.0525333 C2.96676,14.0525333 2.20293,13.156 2.20293,12.008 L2.20293,11.9861333 C2.20293,10.8709333 2.96649,9.95253333 4.05135,9.95253333 C4.79304,9.95253333 5.30226,10.3133333 5.74506,10.8490667 L7.36101,9.6136 C6.67467,8.68453333 5.65623,8.02853333 4.07322,8.02853333 C1.72692,8.02826667 0,9.7776 0,12.008 L0,12.0298667 C0,14.3152 1.782,15.9877333 3.996,15.9877333 Z M11.07324,15.8346667 L13.32045,15.8346667 L13.87395,14.4570667 L16.87365,14.4570667 L17.42715,15.8346667 L19.73025,15.8346667 L16.43085,8.12666667 L14.3613,8.12666667 L11.0727,15.8346667 L11.07324,15.8346667 Z M14.50494,12.8061333 L15.37974,10.6413333 L16.24293,12.8061333 L14.5044,12.8061333 L14.50494,12.8061333 Z M23.91174,15.8346667 L26.05932,15.8346667 L26.05932,13.5168 L27.01134,13.5168 L28.57194,15.8346667 L31.04082,15.8346667 L29.19213,13.1669333 C30.15495,12.7624 30.78594,11.9861333 30.78594,10.8053333 L30.78594,10.7834667 C30.78594,10.0288 30.55374,9.4496 30.0996,9.00133333 C29.57958,8.48746667 28.7604,8.18133333 27.57591,8.18133333 L23.91201,8.18133333 L23.91201,15.8346667 L23.91174,15.8346667 Z M26.05932,11.8549333 L26.05932,10.0069333 L27.47628,10.0069333 C28.18476,10.0069333 28.63863,10.3136 28.63863,10.9256 L28.63863,10.9477333 C28.63863,11.5050667 28.20663,11.8552 27.48708,11.8552 L26.05878,11.8552 L26.05932,11.8549333 Z M37.19304,15.8346667 L37.19304,10.04 L34.87914,10.04 L34.87914,8.18133333 L41.66532,8.18133333 L41.66532,10.04 L39.34062,10.04 L39.34062,15.8346667 L37.19304,15.8346667 Z M49.95,16 C47.71332,16 45.9,14.2090667 45.9,12 C45.9,9.79093333 47.71332,8 49.95,8 C52.18668,8 54,9.79093333 54,12 C54,14.2090667 52.18668,16 49.95,16 Z" id="Shape"></path>
            </g>
        </g>
    </g>
</svg>