<?xml version="1.0" encoding="UTF-8"?>
<svg width="20px" height="20px" viewBox="0 0 20 20" version="1.1" xmlns="http://www.w3.org/2000/svg" xmlns:xlink="http://www.w3.org/1999/xlink">
    <!-- Generator: Sketch 48.2 (47327) - http://www.bohemiancoding.com/sketch -->
    <title>icons/positive/layers</title>
    <desc>Created with Sketch.</desc>
    <defs></defs>
    <g id="Symbols" stroke="none" stroke-width="1" fill="none" fill-rule="evenodd">
        <g id="icons/positive/layers" fill="#383D4C">
            <g id="Group-2" transform="translate(3.000000, 4.000000)">
                <path d="M6.74434286,0.0372 C6.68862857,0.0123428571 6.62948571,0.000342857143 6.56948571,0.000342857143 C6.50948571,0.000342857143 6.45034286,0.0123428571 6.39462857,0.0372 L0.101485714,2.86148571 C-0.0365142857,2.9232 -0.0322285714,3.1212 0.108342857,3.17691429 L6.41177143,5.68062857 C6.46234286,5.7012 6.51634286,5.71148571 6.56948571,5.71148571 C6.62348571,5.71148571 6.67662857,5.7012 6.7272,5.68148571 L13.0666286,3.17691429 C13.2072,3.1212 13.2114857,2.9232 13.0734857,2.86148571 L6.74434286,0.0372 Z" id="Fill-1"></path>
                <path d="M13.0731429,5.74508571 L11.1128571,4.8708 L7.04228571,6.4788 C6.89057143,6.53794286 6.732,6.56794286 6.57,6.56794286 C6.40628571,6.56794286 6.24685714,6.53794286 6.09514286,6.47794286 L2.05028571,4.8708 L0.101142857,5.74508571 C-0.0368571429,5.80765714 -0.0325714286,6.0048 0.108,6.06137143 L6.41142857,8.56508571 C6.462,8.5848 6.516,8.59508571 6.57,8.59508571 C6.62314286,8.59508571 6.67628571,8.5848 6.72685714,8.56508571 L13.0662857,6.06137143 C13.2077143,6.00565714 13.212,5.8068 13.0731429,5.74508571" id="Fill-3"></path>
                <path d="M13.0732286,8.62902857 L11.1129429,7.75474286 L7.04237143,9.36274286 C6.89065714,9.42188571 6.73208571,9.45188571 6.57008571,9.45188571 C6.40637143,9.45188571 6.24694286,9.42188571 6.09522857,9.36188571 L2.05037143,7.75474286 L0.101228571,8.62902857 C-0.0367714286,8.6916 -0.0324857143,8.88874286 0.108085714,8.94531429 L6.41151429,11.4490286 C6.46208571,11.4687429 6.51608571,11.4790286 6.56922857,11.4790286 C6.62322857,11.4790286 6.67637143,11.4687429 6.72694286,11.4490286 L13.0663714,8.94531429 C13.2078,8.8896 13.2120857,8.69074286 13.0732286,8.62902857" id="Fill-5"></path>
            </g>
        </g>
    </g>
</svg>